<svg id="Capa_1" data-name="Capa 1" xmlns="http://www.w3.org/2000/svg" viewBox="0 0 250 250"><defs><style>.cls-1{fill:#f5f5f5;}</style></defs><path class="cls-1" d="M125,13a112,112,0,0,1,79.2,191.2A112,112,0,0,1,45.8,45.8,111.29,111.29,0,0,1,125,13m0-13A125,125,0,1,0,250,125,125,125,0,0,0,125,0Z"/><path class="cls-1" d="M133.34,170.3H111V108.16h22.27v8c2.67-2,5.09-4.69,8.1-6,8.33-3.51,18.76-3.42,25,3.77a25.89,25.89,0,0,1,6.32,16.28c.46,13.06.35,26.13.47,39.2a3.07,3.07,0,0,1-.24.79H150.46v-2.53c0-10,0-20,0-30a38.35,38.35,0,0,0-.43-6.06c-.64-3.84-2.58-6-5.6-6.53-3.42-.62-7.22.76-8.7,4a22.32,22.32,0,0,0-2.17,8.57c-.25,10.22-.09,20.46-.1,30.69C133.44,168.94,133.38,169.5,133.34,170.3Z"/><path class="cls-1" d="M76.91,170.21v-62h22.4v62Z"/><path class="cls-1" d="M88.24,79.7A11.29,11.29,0,1,1,76.81,90.88,11.31,11.31,0,0,1,88.24,79.7Z"/></svg>