<svg id="Capa_1" data-name="Capa 1" xmlns="http://www.w3.org/2000/svg" viewBox="0 0 250 250"><defs><style>.cls-1{fill:#f5f5f5;}</style></defs><path class="cls-1" d="M125,0A125,125,0,1,0,250,125,125,125,0,0,0,125,0ZM108.87,235.85c0-.84,0-1.14,0-1.75.05-9.6.05-19.52,0-29.47,0-3.91-2.48-6.39-6.43-6.48-3.2-.07-5.82-.07-8.26,0a21.69,21.69,0,0,1-15.08-5.47c-4.43-3.73-8-8.36-11.41-13,2.43,1.6,4.72,3.23,6.86,4.75,6.32,4.5,12.54,6.61,19.13,6.51,7.35-.13,13.32-4.83,14.86-11.69a22.75,22.75,0,0,0,.35-5.12c0-.41,0-.83,0-1.24,0-5.36-1.06-6.86-6.17-8.44C91.6,161,82.53,155.94,75,149c-9.8-9.06-15.43-20.61-15.86-32.54s4.31-23.67,13.32-33.28c2.32-2.47,2.76-5.15,1.4-8.42a25,25,0,0,1,1-21.74,2.32,2.32,0,0,1,.29-.46,2.14,2.14,0,0,1,.49.17,42.51,42.51,0,0,1,14.6,10c3,3.24,6.14,4,10.34,2.5a79,79,0,0,1,24.93-4.45,83.76,83.76,0,0,1,30,4.72,7.5,7.5,0,0,0,8.72-2.12,50.64,50.64,0,0,1,5.92-5.27,37.45,37.45,0,0,1,9.86-5.54c3.89,7.33,4.32,14.47,1.35,21.78-1.49,3.64-.93,6.53,1.79,9.37a44.42,44.42,0,0,1,12.65,27.84c1,12.27-3.13,23.58-12.25,33.62-8.84,9.72-20.34,16.37-35.16,20.34-3.11.83-5,2-5.83,3.79s-.7,3.89.5,6.78a41.4,41.4,0,0,1,3.16,16c0,4.13,0,8.26,0,12.4,0,9.34,0,19-.13,28.49,0,.7,0,.94,0,2a113.37,113.37,0,0,1-37.15.82ZM204.2,204.2a110.31,110.31,0,0,1-45,27.5c0-1.51-.28-20.84-.17-26.94.21-10.61.35-17.77-2.21-28.37.53-.2,1.07-.4,1.62-.58,16.52-5.77,29.06-14.48,38.33-26.64,16.56-21.75,15.85-50.4-1.78-71.3a2.3,2.3,0,0,1-.54-2.58c3.3-12.27,1.09-23.62-6.57-33.73-2.23-3-4.61-3.69-8.2-2.54a57.66,57.66,0,0,0-21.83,12.62,1.87,1.87,0,0,1-2.26.49,96.84,96.84,0,0,0-56.1,0A2.07,2.07,0,0,1,97,51.55,57.3,57.3,0,0,0,75.4,39.06c-3.77-1.2-6-.49-8.37,2.61-7.61,10.1-9.78,21.46-6.47,33.75.29,1.1.31,1.42-.19,2C39.7,102.3,42.2,136.34,66.31,158.38A83.28,83.28,0,0,0,94.52,175.2c.26.09.54.17.82.25a5.55,5.55,0,0,1,.88.31,1.84,1.84,0,0,1-.06.4,2.31,2.31,0,0,1-2.45,2,15.08,15.08,0,0,1-9.1-2.47c-2.57-1.69-5.27-3.57-8.75-6.11-8-5.81-15.11-9.1-22.48-10.36a87.13,87.13,0,0,0-9.92-1c-3.87-.2-6.81,2.19-7.15,5.81-.3,3.2,1.8,5.79,5.6,6.91a10.59,10.59,0,0,1,4.52,2.44,85.36,85.36,0,0,1,5.85,7l1.47,1.88c1.35,1.71,2.7,3.49,4,5.21,2.5,3.31,5.09,6.73,7.89,9.91,8.47,9.63,18.63,14.18,30.17,13.52H96v17.24a16.33,16.33,0,0,0,0,1.92c0,.88,0,2,0,3.18A112,112,0,0,1,45.8,45.8,112,112,0,0,1,204.2,204.2Z"/></svg>