<svg id="Capa_1" data-name="Capa 1" xmlns="http://www.w3.org/2000/svg" viewBox="0 0 250 250"><defs><style>.cls-1{fill:#f5f5f5;}</style></defs><path class="cls-1" d="M128.36,246.65c-22.71-.67-43.9-6.23-63.43-17.78a5.43,5.43,0,0,0-5.57-.41c-16,6.92-32,13.64-48,20.5-2.81,1.2-5.44,1.75-7.89-.54s-2.13-5.14-1-8.11c6.12-16.38,12.13-32.81,18.28-49.19a6.53,6.53,0,0,0-.54-6.41c-27-44.45-23.65-100.25,9-140.65C49.08,19.54,75.09,5.36,106.4,1.24c64.43-8.47,122.25,34.23,137.72,92.82,18.47,69.94-24.77,136.3-91.69,149.65C144.52,245.29,136.39,245.7,128.36,246.65ZM18.19,232.92c13.62-5.78,26.51-11.1,39.27-16.73,4-1.77,7.2-1.64,11,.74,25.08,15.57,52.31,20.91,81.27,15.2,57.8-11.4,96.72-67.08,84.1-128.73C222.64,48.59,171,7.66,112.88,12.76,86.52,15.07,63.81,25.41,45.31,44.29A109,109,0,0,0,29.47,176.07c4.6,7.77,5.36,14,1.78,22.1C26.37,209.22,22.67,220.81,18.19,232.92Z"/><path class="cls-1" d="M158,194.34c-17.93-1-34.23-8.28-49.32-18.62-22.85-15.68-40.1-36-50.63-61.83a83.74,83.74,0,0,1-5.72-24.13A32.41,32.41,0,0,1,58.07,67.9c5.13-7.51,11.62-13.52,20-17.23,7.69-3.42,14.41-1.23,18.81,5.9q5.91,9.56,11.72,19.17c1.19,2,2.21,4.09,3.25,6.17,3,5.92,2,11.22-2.79,15.72-2.87,2.71-5.93,5.22-9,7.75-3.52,2.94-3.93,3.33-1.46,7.24a131.9,131.9,0,0,0,11.14,15.47C116.58,136,124.38,143,133.69,148c4.59,2.46,4.6,2.36,7.94-1.61,2.6-3.1,5.17-6.24,8-9.12,4.14-4.18,9.08-5.12,14.48-2.64a79,79,0,0,1,7.51,4c6.08,3.64,12.09,7.38,18.14,11.07,7.8,4.75,10.19,11.55,6,19.68-6.88,13.3-16.9,22.9-32.52,25A46.54,46.54,0,0,1,158,194.34ZM63.87,86.48c1.11,5.54,1.71,11,3.32,16.2,7.11,22.83,20.9,41.15,39.21,56.17C120,170,135.06,178.51,152.69,181.68a29,29,0,0,0,32.11-17.2c.69-1.59,1.1-3-.83-4.14q-11.21-6.69-22.31-13.53c-2.21-1.37-3.77-1.1-5.4.94-2.84,3.55-5.83,7-8.85,10.4-3.38,3.81-7.69,5-12.39,3.27a61.05,61.05,0,0,1-11.5-5.34A108.85,108.85,0,0,1,98.27,133.5c-4.84-5.75-9.35-11.72-12-18.83-2.94-7.75-2-11.55,4.18-17,2.81-2.46,5.69-4.87,8.63-7.18,2-1.6,2.33-3.18.94-5.41-4.38-7-8.74-14.1-12.86-21.3-1.48-2.58-3.06-2.88-5.39-1.55C75.15,66,69.74,71,66.42,77.82,65.13,80.48,64.7,83.55,63.87,86.48Z"/></svg>