<svg id="Capa_1" data-name="Capa 1" xmlns="http://www.w3.org/2000/svg" viewBox="0 0 250 250"><defs><style>.cls-1{fill:#f5f5f5;}</style></defs><path class="cls-1" d="M125,13a112,112,0,0,1,79.2,191.2A112,112,0,0,1,45.8,45.8,111.29,111.29,0,0,1,125,13m0-13A125,125,0,1,0,250,125,125,125,0,0,0,125,0Z"/><path class="cls-1" d="M125,73.62h57c10.17,0,15.82,5.63,15.83,15.82q0,35.53,0,71.08c0,10.11-5.71,15.84-15.86,15.84q-57,0-114,0c-10.15,0-15.83-5.72-15.83-15.87q0-35.53,0-71.08c0-10.15,5.69-15.79,15.86-15.79Zm61,17.84c-.94.69-1.59,1.12-2.2,1.61q-27,21.39-54,42.81c-3.83,3-5.92,3-9.73,0q-22-17.49-44-35c-3.91-3.11-7.84-6.2-12.27-9.7v68.89c0,4.12.46,4.57,4.65,4.57h113c4.21,0,4.66-.44,4.66-4.56q0-33,0-65.95C186.15,93.39,186.09,92.62,186,91.46Zm-110.23-6a5.65,5.65,0,0,0,.56.72Q100,105,123.62,123.77c1.36,1.09,2.09.5,3.1-.3Q148.83,105.89,171,88.35c1-.83,2.06-1.69,3.53-2.89Z"/></svg>