<svg id="Capa_1" data-name="Capa 1" xmlns="http://www.w3.org/2000/svg" viewBox="0 0 500 500"><defs><style>.cls-1{fill:#f5f5f5;}</style></defs><path class="cls-1" d="M421.5,82.71A240,240,0,0,0,77.59,417.56,240,240,0,1,0,421.5,82.71ZM211.76,368,33.57,189.79a224.55,224.55,0,0,1,52-92.52L402.42,414.15a223.15,223.15,0,0,1-152.87,60.2c-123.63,0-224.21-100.58-224.21-224.21a225.52,225.52,0,0,1,4-42.31L200.62,379.12a5.59,5.59,0,0,0,7.9,0l3.24-3.25A5.58,5.58,0,0,0,211.76,368Zm75.67-235.59,178.1,178.1a224.68,224.68,0,0,1-52,92.52L96.68,86.13a223.1,223.1,0,0,1,152.87-60.2c123.63,0,224.21,100.58,224.21,224.21a225.84,225.84,0,0,1-4,42.31l-171.2-171.2a5.58,5.58,0,0,0-7.89,0l-3.24,3.25A5.58,5.58,0,0,0,287.43,132.39Z"/></svg>